<svg xmlns="http://www.w3.org/2000/svg" viewBox="0 0 32 32" shape-rendering="crispEdges">
<path fill="#ffffff" d="M10,11h6v1h-6zM10,12h6v1h-6zM10,13h6v1h-6zM3,14h13v1h-13zM3,15h13v1h-13zM3,16h13v1h-13zM3,17h13v1h-13zM10,18h6v1h-6zM10,19h6v1h-6zM10,20h6v1h-6zM10,21h6v1h-6zM10,22h6v1h-6zM10,23h6v1h-6zM3,24h19v1h-19zM3,25h19v1h-19zM3,26h19v1h-19z"/>
<path fill="#3e3e3e" d="M16,14h6v1h-6zM16,15h6v1h-6zM16,16h6v1h-6zM16,17h6v1h-6zM16,18h6v1h-6zM16,19h6v1h-6zM16,20h6v1h-6zM16,21h6v1h-6zM16,22h6v1h-6zM16,23h6v1h-6zM10,27h19v1h-19zM10,28h19v1h-19zM10,29h19v1h-19z"/>
</svg>
