<svg xmlns="http://www.w3.org/2000/svg" viewBox="0 0 32 32" shape-rendering="crispEdges">
<path fill="#ffffff" d="M11,2h14v1h-14zM11,3h14v1h-14zM11,4h14v1h-14zM7,5h4v1h-4zM7,6h4v1h-4zM7,7h4v1h-4zM2,8h5v1h-5zM2,9h5v1h-5zM2,10h5v1h-5zM2,11h23v1h-23zM2,12h23v1h-23zM2,13h23v1h-23zM2,14h5v1h-5zM2,15h5v1h-5zM2,16h5v1h-5zM2,17h5v1h-5zM7,18h4v1h-4zM7,19h4v1h-4zM7,20h4v1h-4zM11,21h14v1h-14zM11,22h14v1h-14zM11,23h14v1h-14z"/>
<path fill="#3e3e3e" d="M16,5h14v1h-14zM16,6h14v1h-14zM16,7h14v1h-14zM11,8h5v1h-5zM11,9h5v1h-5zM11,10h5v1h-5zM7,14h23v1h-23zM7,15h23v1h-23zM7,16h23v1h-23zM7,17h23v1h-23zM16,24h14v1h-14zM16,25h14v1h-14zM16,26h14v1h-14z"/>
</svg>
